#!OML:ASF I:\Actors\actors\Patient Classification 2\Patient 1\Session 1\actor1.ASF
:FULLY-SPECIFIED
:DEGREES
572
root -0.575597 18.6792 5.60254 1.17403 -4.96078 -0.191942
lowerback 1.41662 1.10202 -3.15848
upperback -0.958509 1.41972 1.13388
thorax -1.88476 0.757679 2.8924
lowerneck -13.4404 -1.83527 -2.15068
upperneck 20.0254 -2.28804 1.02002
head 8.48732 -1.14059 0.443899
rclavicle 7.71882e-015 -1.47101e-014
rhumerus -46.8585 -0.242531 -84.254
rradius 42.7562
rwrist 8.98911
rhand -7.33694 -40.768
rfingers 7.12502
rthumb 18.5467 -69.9038
lclavicle 7.71882e-015 -1.47101e-014
lhumerus -41.2691 -2.26972 90.1996
lradius 36.7527
lwrist -2.62013
lhand -5.96927 -23.9984
lfingers 7.12502
lthumb 19.8619 5.0067
rfemur 0 0 0
rtibia 0
rfoot 0 0
rtoes 0
lfemur -2.23349 -7.78017 -15.1491
ltibia 19.6959
lfoot -24.68 17.2473
ltoes -53.5982
573
root -0.575598 18.6791 5.6027 1.17111 -4.9901 -0.222567
lowerback 1.4142 1.1097 -3.11984
upperback -0.957359 1.43094 1.13628
thorax -1.8821 0.762745 2.87282
lowerneck -13.4394 -1.85154 -2.13425
upperneck 20.0003 -2.31837 1.03918
head 8.47918 -1.15169 0.444234
rclavicle -3.71634e-015 7.95139e-016
rhumerus -46.8458 -0.386882 -84.1446
rradius 42.7735
rwrist 8.70718
rhand -7.04104 -40.8699
rfingers 7.12502
rthumb 18.8314 -69.9783
lclavicle -3.71634e-015 7.95139e-016
lhumerus -41.294 -2.35331 90.1745
lradius 36.768
lwrist -2.59108
lhand -6.01066 -23.8095
lfingers 7.12502
lthumb 19.8221 5.19966
rfemur 0 0 0
rtibia 0
rfoot 0 0
rtoes 0
lfemur -2.22648 -7.78724 -15.1182
ltibia 19.7058
lfoot -24.7285 17.2362
ltoes -53.5281
574
root -0.575065 18.6787 5.60245 1.17235 -4.98643 -0.238093
lowerback 1.41522 1.10014 -3.10497
upperback -0.964434 1.41852 1.14195
thorax -1.88879 0.756606 2.87062
lowerneck -13.3229 -1.84099 -1.83037
upperneck 19.924 -2.34951 0.926016
head 8.42711 -1.15568 0.353523
rclavicle -1.11226e-014 -5.06901e-015
rhumerus -46.9016 -0.431197 -84.1156
rradius 42.7898
rwrist 8.69761
rhand -7.03358 -40.9727
rfingers 7.12502
rthumb 18.8385 -70.0804
lclavicle -1.11226e-014 -5.06901e-015
lhumerus -41.3011 -2.38718 90.1426
lradius 36.7374
lwrist -2.57016
lhand -6.05552 -23.7608
lfingers 7.12502
lthumb 19.779 5.25286
rfemur 0 0 0
rtibia 0
rfoot 0 0
rtoes 0
lfemur -2.22383 -7.80735 -15.1018
ltibia 19.7074
lfoot -24.767 17.2104
ltoes -53.4694
575
root -0.574159 18.679 5.60258 1.19255 -4.99069 -0.22641
lowerback 1.4015 1.09083 -3.12336
upperback -0.987032 1.40597 1.14436
thorax -1.90395 0.75118 2.88389
lowerneck -13.2582 -1.83554 -1.6652
upperneck 19.8973 -2.36356 0.850015
head 8.40329 -1.15803 0.299723
rclavicle 7.45443e-016 1.13307e-014
rhumerus -46.9731 -0.452302 -84.0897
rradius 42.8258
rwrist 8.64422
rhand -6.90166 -41.08
rfingers 7.12502
rthumb 18.9654 -70.1753
lclavicle 7.45443e-016 1.13307e-014
lhumerus -41.3253 -2.33777 90.0898
lradius 36.7007
lwrist -2.62499
lhand -6.0119 -23.8454
lfingers 7.12502
lthumb 19.8209 5.16398
rfemur 0 0 0
rtibia 0
rfoot 0 0
rtoes 0
lfemur -2.24042 -7.82722 -15.1204
ltibia 19.6958
lfoot -24.7798 17.2761
ltoes -53.5325
576
root -0.573157 18.6789 5.60268 1.20681 -5.0175 -0.214178
lowerback 1.40334 1.09024 -3.13834
upperback -1.01709 1.40464 1.14795
thorax -1.93631 0.751737 2.89571
lowerneck -13.2572 -1.82622 -1.6303
upperneck 19.9235 -2.35121 0.814907
head 8.41087 -1.15318 0.283466
rclavicle 5.76165e-015 -2.38542e-015
rhumerus -47.0312 -0.405275 -84.1077
rradius 42.8186
rwrist 8.55401
rhand -6.85781 -41.0547
rfingers 7.12502
rthumb 19.0076 -70.1459
lclavicle 5.76165e-015 -2.38542e-015
lhumerus -41.3644 -2.25866 90.0439
lradius 36.6845
lwrist -2.70973
lhand -5.93431 -23.826
lfingers 7.12502
lthumb 19.8955 5.17565
rfemur 0 0 0
rtibia 0
rfoot 0 0
rtoes 0
lfemur -2.24488 -7.8865 -15.1458
ltibia 19.6839
lfoot -24.8291 17.3213
ltoes -53.4705
577
root -0.571952 18.6778 5.60227 1.21552 -5.02668 -0.218271
lowerback 1.41128 1.08219 -3.12974
upperback -1.03607 1.39389 1.15768
thorax -1.95953 0.747 2.90093
lowerneck -13.2765 -1.80159 -1.60169
upperneck 19.9522 -2.3151 0.776439
head 8.42274 -1.13783 0.269584
rclavicle 3.1627e-015 -4.67144e-015
rhumerus -47.0902 -0.352731 -84.1537
rradius 42.8229
rwrist 8.5461
rhand -6.93045 -41.0305
rfingers 7.12502
rthumb 18.9377 -70.1286
lclavicle 3.1627e-015 -4.67144e-015
lhumerus -41.3755 -2.18991 90.0186
lradius 36.6749
lwrist -2.75144
lhand -5.87884 -23.6502
lfingers 7.12502
lthumb 19.9488 5.34591
rfemur 0 0 0
rtibia 0
rfoot 0 0
rtoes 0
lfemur -2.24564 -7.90432 -15.1444
ltibia 19.6788
lfoot -24.849 17.2692
ltoes -53.3455
578
root -0.570747 18.6774 5.60186 1.22839 -5.01951 -0.210421
lowerback 1.39654 1.06791 -3.13462
upperback -1.03726 1.37536 1.1687
thorax -1.95151 0.737769 2.91594
lowerneck -13.3317 -1.7746 -1.50213
upperneck 19.9914 -2.26645 0.625164
head 8.44231 -1.12264 0.20716
rclavicle -1.03422e-014 -1.11319e-014
rhumerus -47.1258 -0.373508 -84.1702
rradius 42.8298
rwrist 8.61245
rhand -6.99491 -41.0204
rfingers 7.12502
rthumb 18.8757 -70.1245
lclavicle -1.03422e-014 -1.11319e-014
lhumerus -41.352 -2.14563 90.0168
lradius 36.6485
lwrist -2.71483
lhand -5.8718 -23.6313
lfingers 7.12502
lthumb 19.9556 5.3641
rfemur 0 0 0
rtibia 0
rfoot 0 0
rtoes 0
lfemur -2.26721 -7.79676 -15.1431
ltibia 19.6767
lfoot -24.7511 17.2141
ltoes -53.4165
579
root -0.569904 18.6784 5.60217 1.23052 -5.02416 -0.20954
lowerback 1.37573 1.05934 -3.14192
upperback -1.02822 1.36473 1.18517
thorax -1.93032 0.73219 2.93787
lowerneck -13.4422 -1.73629 -1.34316
upperneck 20.0692 -2.20497 0.427948
head 8.48368 -1.10147 0.120193
rclavicle -6.79673e-015 3.97569e-015
rhumerus -47.1381 -0.408375 -84.1859
rradius 42.8259
rwrist 8.60801
rhand -6.98394 -40.9925
rfingers 7.12502
rthumb 18.8863 -70.0956
lclavicle -6.79673e-015 3.97569e-015
lhumerus -41.334 -2.1121 90.0306
lradius 36.6324
lwrist -2.7169
lhand -5.91401 -23.7805
lfingers 7.12502
lthumb 19.915 5.21909
rfemur 0 0 0
rtibia 0
rfoot 0 0
rtoes 0
lfemur -2.27763 -7.72943 -15.1443
ltibia 19.6789
lfoot -24.6795 17.2413
ltoes -53.5349
580
root -0.569202 18.6793 5.60167 1.24271 -5.02192 -0.218812
lowerback 1.36071 1.05905 -3.12737
upperback -1.02786 1.36514 1.18709
thorax -1.92122 0.732052 2.93194
lowerneck -13.5124 -1.73023 -1.3534
upperneck 20.1102 -2.20829 0.494575
head 8.51131 -1.09664 0.14306
rclavicle -4.02772e-015 9.54166e-015
rhumerus -47.1615 -0.419272 -84.257
rradius 42.8466
rwrist 8.5493
rhand -6.92051 -41.015
rfingers 7.12502
rthumb 18.9473 -70.1122
lclavicle -4.02772e-015 9.54166e-015
lhumerus -41.3257 -2.11927 90.0435
lradius 36.6353
lwrist -2.79474
lhand -5.925 -23.7887
lfingers 7.12502
lthumb 19.9045 5.21193
rfemur 0 0 0
rtibia 0
rfoot 0 0
rtoes 0
lfemur -2.29871 -7.78677 -15.1395
ltibia 19.6842
lfoot -24.7168 17.2782
ltoes -53.4841
581
root -0.56849 18.6788 5.60079 1.23631 -5.00576 -0.210778
lowerback 1.3744 1.05594 -3.12211
upperback -1.03473 1.36052 1.17987
thorax -1.93532 0.72996 2.92135
lowerneck -13.458 -1.7641 -1.53966
upperneck 20.0674 -2.26924 0.747953
head 8.49301 -1.11358 0.252834
rclavicle -9.78005e-015 1.2921e-015
rhumerus -47.2047 -0.401856 -84.3523
rradius 42.8667
rwrist 8.50781
rhand -6.89722 -41.1312
rfingers 7.12502
rthumb 18.9697 -70.2261
lclavicle -9.78005e-015 1.2921e-015
lhumerus -41.3346 -2.15649 90.0683
lradius 36.6465
lwrist -2.81439
lhand -5.90282 -23.6771
lfingers 7.12502
lthumb 19.9258 5.32141
rfemur 0 0 0
rtibia 0
rfoot 0 0
rtoes 0
lfemur -2.29791 -7.85504 -15.1524
ltibia 19.6836
lfoot -24.7636 17.2875
ltoes -53.3922
